<?xml version="1.0" standalone="no"?>
<!DOCTYPE svg PUBLIC "-//W3C//DTD SVG 20010904//EN"
 "http://www.w3.org/TR/2001/REC-SVG-20010904/DTD/svg10.dtd">
<svg version="1.0" xmlns="http://www.w3.org/2000/svg"
 width="512.000000pt" height="512.000000pt" viewBox="0 0 512.000000 512.000000"
 preserveAspectRatio="xMidYMid meet">
<metadata>
Created by potrace 1.11, written by Peter Selinger 2001-2013
</metadata>
<g transform="translate(0.000000,512.000000) scale(0.100000,-0.100000)"
fill="#000000" stroke="none">
<path d="M2044 4537 c-64 -195 -223 -578 -242 -585 -22 -7 -332 193 -526 340
-71 54 -131 96 -133 94 -10 -10 -152 -541 -145 -547 4 -3 68 -27 142 -54 74
-26 149 -54 165 -61 17 -7 59 -25 95 -40 81 -33 145 -61 187 -82 l32 -16 -28
-50 c-81 -147 -193 -320 -323 -499 -43 -59 -78 -111 -78 -116 0 -5 15 -11 33
-15 36 -7 410 -110 472 -130 l41 -13 43 131 c55 167 177 478 197 505 3 3 152
-80 219 -122 83 -52 296 -196 370 -251 l90 -66 12 37 c8 20 15 46 18 57 2 12
20 79 40 150 20 71 38 137 40 145 2 9 13 47 24 85 11 38 18 73 15 77 -4 7 -51
23 -99 35 -46 11 -379 139 -488 188 l-59 26 23 37 c84 142 137 226 175 281 24
35 44 67 44 72 0 4 3 10 8 12 5 2 127 159 197 254 5 7 7 15 5 17 -4 3 -99 30
-467 133 l-82 22 -17 -51z"/>
<path d="M1400 3437 c-236 -119 -374 -214 -538 -371 -155 -148 -300 -390 -338
-561 -29 -135 -29 -296 2 -410 39 -146 125 -288 248 -410 77 -77 204 -175 224
-175 6 0 12 -4 14 -8 6 -14 181 -99 282 -137 123 -45 277 -85 396 -101 25 -3
47 -8 50 -9 29 -18 467 -26 610 -12 183 18 416 66 585 121 43 14 80 24 82 23
8 -9 -213 -407 -329 -590 -37 -59 -68 -112 -68 -117 0 -6 8 -10 18 -11 9 0 24
-2 32 -4 34 -7 167 -35 190 -39 71 -13 437 -87 452 -92 18 -5 16 -12 61 176
62 261 187 650 209 650 14 0 335 -163 475 -241 128 -72 306 -179 376 -226 20
-14 39 -24 41 -22 4 4 36 147 41 184 2 11 13 67 25 125 12 58 24 116 26 130 2
14 11 57 19 95 8 39 17 84 20 100 3 17 7 42 10 58 4 20 1 27 -11 27 -9 0 -71
14 -137 31 -67 17 -132 33 -145 35 -65 13 -442 134 -525 169 l-27 11 78 155
c120 237 261 478 388 661 50 74 52 78 31 83 -30 6 -316 63 -347 69 -14 2 -36
7 -50 10 -14 3 -36 8 -50 10 -14 3 -71 14 -128 26 -56 12 -108 20 -114 18 -6
-2 -22 -44 -35 -94 -30 -113 -43 -158 -94 -324 -24 -74 -44 -139 -45 -145 -3
-14 -96 -269 -99 -273 -2 -2 -83 37 -180 87 -184 95 -457 256 -610 359 -49 34
-91 60 -92 58 -3 -3 -14 -58 -36 -176 -3 -14 -26 -131 -52 -260 -26 -129 -49
-244 -51 -256 -3 -18 5 -23 59 -38 34 -10 72 -20 85 -22 74 -14 654 -203 669
-218 6 -6 -16 -68 -32 -89 -17 -23 -180 -62 -347 -83 -24 -3 -56 -7 -73 -10
-16 -3 -136 -7 -265 -9 -262 -4 -391 10 -615 65 -341 84 -657 269 -812 477
-15 21 -31 40 -34 43 -3 3 -25 39 -48 81 -39 72 -72 157 -85 224 -4 17 -9 41
-12 55 -11 52 -5 208 11 285 63 302 288 597 625 817 112 74 111 75 -10 15z"/>
</g>
</svg>
